<?xml version="1.0" encoding="utf-8"?>
<!-- Generator: Adobe Illustrator 27.5.0, SVG Export Plug-In . SVG Version: 6.00 Build 0)  -->
<svg version="1.1" xmlns="http://www.w3.org/2000/svg" xmlns:xlink="http://www.w3.org/1999/xlink" x="0px" y="0px"
	 viewBox="0 0 500 500" style="enable-background:new 0 0 500 500;" xml:space="preserve">
<g id="Background_Complete">
	<g>
		<path style="fill:#F5F5F5;" d="M47.553,290.627c-22.897,29.628-19.636,67.062,8.259,94.83
			c19.947,19.856,51.091,34.736,66.688,56.166c-44.928-12.242-80.921-37.56-96.087-67.587
			c-15.166-30.027-9.241-64.244,15.816-91.344C42.229,282.692,54.886,279.241,47.553,290.627z"/>
	</g>
	<g>
		<g>
			<path style="fill:#EBEBEB;" d="M332.788,41.527c33.023,32.7,30.231,64.681,66.081,94.254
				c20.499,16.91,63.904,35.725,89.219,56.343v-45.708c-17.684-12.271-40.24-24.624-49.565-35.809
				c-20.276-24.322-5.225-49.33-25.406-73.732c-8.008-9.683-17.427-17.983-27.802-24.963H296.5
				C309.612,20.479,321.832,30.678,332.788,41.527z"/>
		</g>
		<g>
			<path style="fill:#EBEBEB;" d="M216.822,474.715c-39.511-10.046-80.308-15.669-118.435-30.105
				c-34.929-13.225-68.397-35.384-86.475-67.662v70.046c10.829,4.466,22.084,8.084,33.12,11.134
				c39.92,11.035,80.951,18.246,120.606,29.959h91.615C244.317,482.365,230.517,478.197,216.822,474.715z"/>
		</g>
		<g>
			<path style="fill:#F5F5F5;" d="M35.882,259.996c14.012-7.993,33.545-14.509,34.365-30.619
				c0.893-17.564-20.958-25.246-36.281-33.877c-8.733-4.919-16.12-11.676-22.053-19.607v38.468
				c6.442,3.529,11.71,8.155,12.51,15.183c0.975,8.564-5.448,15.419-12.51,21.035v33.019
				C17.809,273.952,25.798,265.748,35.882,259.996z"/>
		</g>
		<g>
			<path style="fill:#E0E0E0;" d="M11.911,67.129C20.86,52.907,32.693,40.305,46,30.033c8.979-6.931,18.598-12.891,28.631-18.122
				h-62.72V67.129z"/>
		</g>
		<g>
			<path style="fill:#EBEBEB;" d="M488.089,455.269v-72.503c-16.952,23.17-37.547,43.678-60.895,60.386
				c-17.74,12.695-37.247,23.44-51.903,39.598c-1.541,1.699-3.016,3.486-4.42,5.339h57.871
				C447.703,475.743,467.548,464.757,488.089,455.269z"/>
		</g>
		<g>
			<path style="fill:#FAFAFA;" d="M23.469,95.737c-4.598,5.499-9.148,11.35-11.558,18.024v17.436
				c1.494,3.651,3.994,6.764,7.537,8.546c6.675,3.356,15.037,1.105,20.979-3.423c5.943-4.528,10.058-10.973,14.365-17.077
				c45.354-64.277,126.682-101.259,204.934-93.189c6.114,0.631,13.545,0.955,17.01-4.122c2.007-2.94,1.751-6.768,0.159-10.02
				H119.793C83.613,34.687,50.887,62.949,23.469,95.737z"/>
		</g>
		<g>
			<path style="fill:#F5F5F5;" d="M455.054,60.56c1.376,4.511,2.544,9.265,5.535,12.911c2.991,3.646,8.495,5.769,12.534,3.335
				c4.065-2.45,4.747-7.997,4.649-12.742c-0.377-18.409-6.056-36.631-15.942-52.153h-37.022
				C438.81,25.203,449.421,42.087,455.054,60.56z"/>
		</g>
		<g>
			<path style="fill:#F5F5F5;" d="M387.121,455.854c19.401-19.687,38.806-39.379,57.576-59.67
				c11.391-12.314,22.635-24.97,30.929-39.551c4.237-7.448,9.104-30.935,12.463-54.332v-66.108
				c-8.398-22.556-25.749-36.579-35.593-43.054c-1.935-1.273-4.269,0.91-3.115,2.918l11.475,19.974
				c15.325,30.678,13.44,74.85,1.908,110.143c-10.257,31.389-33.736,56.502-57.645,79.28
				c-23.908,22.779-49.392,44.911-65.655,73.651c-1.487,2.628-2.699,5.947-2.909,8.983h18.801L387.121,455.854z"/>
		</g>
	</g>
	<g>
		<path style="fill:#F5F5F5;" d="M83.286,220.755c-1.671,1.873-2.271,5.386-1.786,8.415c0.485,3.029,1.898,5.583,3.57,7.454
			c2.417,2.703,5.556,4.172,8.521,3.296c2.965-0.875,5.63-4.355,6.171-8.782c0.637-5.211-1.837-10.57-5.154-12.488
			c-3.317-1.919-7.177-0.825-10.235,1.885"/>
	</g>
	<path style="fill:#F5F5F5;" d="M109.808,488.089c-28.439-3.12-97.897-27.25-97.897-27.25v28.637
		C11.911,489.475,138.247,491.209,109.808,488.089z"/>
	<g>
		<path style="fill:#F5F5F5;" d="M490.06,101.005c-0.854-5.369-5.569-9.654-10.873-10.848l0.427,0.107
			c-3.415-1.257-6.582-1.271-9.266,0.402c-2.683,1.673-4.885,4.442-5.042,7.601c-0.15,3.021,1.547,5.821,3.461,8.164
			c3.238,3.964,7.98,7.469,13.04,6.7C487.183,112.314,490.914,106.374,490.06,101.005z"/>
	</g>
	<g>
		<path style="fill:#F5F5F5;" d="M310.676,33.265c-2.284-3.937-8.096-5.59-11.748-2.874l-1.75-0.275
			c-4.517,0.44-8.231,4.726-8.305,9.264s3.276,8.828,7.619,10.143c4.344,1.315,9.339-0.257,12.385-3.621
			C311.933,42.529,312.96,37.202,310.676,33.265z"/>
	</g>
</g>
<g id="Background_Simple" style="display:none;">
	<path style="display:inline;fill:#F5F5F5;" d="M342.922,57.182l0.674-1.335c5.678-11.253,16.958-18.651,29.445-18.838
		c1.605-0.024,3.213,0.068,4.808,0.281c11.488,1.534,21.987,9.309,26.918,19.932c2.9,6.248,4.15,13.605,9.097,18.357
		c6.439,6.185,16.504,5.607,25.317,4.64c8.813-0.967,18.887-1.519,25.299,4.694c4.016,3.891,5.653,9.743,5.794,15.364
		c0.372,14.882-8.917,28.941-21.535,36.556c-12.618,7.614-28.034,9.415-42.635,7.642c-20.453-2.483-40.474-12.131-53.331-28.447
		C339.916,99.713,335.167,76.485,342.922,57.182z"/>
	<circle style="display:inline;fill:#F5F5F5;" cx="60.534" cy="435.262" r="30.798"/>
</g>
<g id="Panic">
	<g>
		<path style="fill:#455A64;" d="M401.059,167.556c-0.987,1.549-5.311,9.919-7.102,11.208c-6.304,4.54-27.36,3.304-27.36,3.304
			l-1.286,6.808c0,0-1.052,4.159-0.943,4.489c0.109,0.331,5.705,1.144,8.254,5.119c1.132,1.765,1.412,3.171,1.374,4.188
			c-0.041,1.079-0.995,1.891-2.067,1.771l-5.331-0.597c1.533,1.189,1.691,2.548,1.338,3.743c-0.569,1.927-2.562,3.066-4.542,2.724
			l-5.108-0.883c0,0,1.111,4.76-4.416,5.303c-3.178,0.313-17.308-11.524-17.308-11.524s2.553,3.246,3.693,7.945
			c1.498,6.171-6.262,6.22-6.262,6.22s-11.667-19.042-12.392-20.831c-0.726-1.788,4.999-28.239,9.305-30.715
			c2.223-1.278,25.391-8.065,37.711-12.663c-10.034-4.244-23.412-8.954-28.987-23.871c-15.633-41.829-26.044-59.092-58.842-68.784
			c-32.798-9.693-69.056-9.425-106.855,3.543c-25.424,8.723-50.542,24.689-70.13,43.051c4.646,5.033,9.225,9.64,11.857,11.076
			c8.148,4.445,25.58,13.283,29.31,15.222c3.73,1.938,9.644,8.02,9.644,8.02s7.531,7.79,12.436,12.428
			c4.05,3.829,12.255,10.299,8.298,13.324c-2.535,1.939-8.567-0.311-13.293-4.721c-3.322-3.1-11.58-12.827-14.683-12.408
			c0,0,7.492,7.017,11.072,14.811c4.116,8.959,7.237,13.399,5.716,14.573c-2.844,2.195-7.881,0.342-12.106-6.905
			c-2.349-4.029-1.491-5.229-5.211-8.467c-3.72-3.237-10.988-8.298-10.988-8.298s4.489,11.319,4.922,14.684
			c0.433,3.365,3.163,13.982,1.697,15.881c-1.466,1.899-6.482-1.672-8.352-7.035c-1.87-5.363-3.047-9.545-3.795-11.69
			c-0.748-2.145-7.688-12.322-9.302-11.111c-1.614,1.211,2.895,10.205,3.113,13.075c0.292,3.845,1.33,16.938-1.573,16.84
			c-2.903-0.098-5.447-4.433-5.801-7.895c-0.394-3.862-1.324-10.708-3.828-13.369c-2.126-2.26-12.478-15.433-19.633-21.009
			c-4.692-3.656-7.195-9.543-8.611-13.856c-9.92,17.823-12.321,38.741-2.356,55.331c10.431,17.365,32.9,28.904,35.231,48.902
			c2.216,19.015-39.04,27.606-49.242,44.914c-23.017,39.051,4.223,100.567,38.996,128.611c10.263,8.277,54.969,43.392,72.448,48.327
			c1.99,0.562,137.114-3.612,139.294-3.318c0,0,37.203-11.526,81.523-62.337c39.967-45.82,40.849-119.408,40.849-119.408
			C449.398,194.986,418.056,176.295,401.059,167.556z"/>
		<g>
			<g>
				<g>
					<g>
						<path style="fill:#455A64;" d="M357.508,175.847c-0.005-0.009-0.091,0.033-0.257,0.126c-0.154,0.107-0.376,0.285-0.586,0.58
							c-0.432,0.581-0.842,1.565-1.047,2.866l0.002-0.011c-0.359,1.549-0.768,3.523-1.137,5.796
							c-0.185,1.136-0.358,2.348-0.485,3.62c-0.128,1.271-0.23,2.605-0.15,3.986c0.038,0.616,0.129,1.226,0.318,1.82
							c0.268,0.543,0.469,1.114,0.821,1.587c0.603,1.011,1.419,1.812,2.188,2.557c1.614,1.425,3.29,2.42,4.727,3.167
							c1.443,0.743,2.664,1.233,3.516,1.544c0.426,0.156,0.762,0.263,0.991,0.332c0.229,0.067,0.353,0.095,0.356,0.083
							c0.004-0.011-0.112-0.06-0.333-0.148c-0.257-0.104-0.575-0.233-0.964-0.391c-0.833-0.348-2.033-0.869-3.449-1.634
							c-1.41-0.768-3.054-1.775-4.625-3.186c-0.747-0.735-1.539-1.522-2.116-2.501c-0.34-0.459-0.528-1.008-0.786-1.528
							c-0.063-0.279-0.168-0.545-0.201-0.838c-0.029-0.293-0.088-0.583-0.095-0.885c-0.078-1.345,0.018-2.67,0.14-3.932
							c0.12-1.264,0.284-2.472,0.458-3.605c0.346-2.268,0.724-4.245,1.043-5.796l0.001-0.006l0.001-0.005
							c0.169-1.267,0.539-2.248,0.925-2.824C357.143,176.025,357.534,175.88,357.508,175.847z"/>
					</g>
					<g>
						<path style="fill:#455A64;" d="M358.453,209.391c0.005-0.011-0.122-0.088-0.367-0.231c-0.277-0.16-0.634-0.366-1.075-0.621
							c-0.932-0.541-2.277-1.331-3.889-2.381c-1.609-1.052-3.498-2.354-5.432-3.99c-0.948-0.835-1.937-1.728-2.807-2.781
							c-0.903-1.023-1.675-2.234-2.068-3.594c-0.349-1.382-0.298-2.809-0.2-4.164c0.12-1.356,0.242-2.682,0.406-3.926
							c0.302-2.487,0.575-4.733,0.806-6.635c0.128-0.947,0.214-1.805,0.357-2.54c0.145-0.735,0.372-1.345,0.663-1.783
							c0.59-0.883,1.208-1.101,1.17-1.143c-0.005-0.009-0.141,0.054-0.389,0.199c-0.236,0.159-0.581,0.421-0.895,0.87
							c-0.321,0.444-0.575,1.071-0.741,1.817c-0.164,0.748-0.267,1.604-0.41,2.543c-0.253,1.903-0.551,4.151-0.882,6.64
							c-0.173,1.252-0.3,2.558-0.427,3.932c-0.103,1.368-0.162,2.823,0.203,4.273c0.415,1.438,1.223,2.687,2.143,3.724
							c0.893,1.072,1.897,1.969,2.86,2.805c1.962,1.637,3.875,2.923,5.507,3.954c1.635,1.028,3.003,1.787,3.957,2.294
							c0.477,0.254,0.852,0.443,1.109,0.565C358.309,209.344,358.448,209.401,358.453,209.391z"/>
					</g>
					<g>
						<path style="fill:#455A64;" d="M336.989,203.628c0.016-0.017-0.262-0.293-0.719-0.83c-0.458-0.536-1.087-1.341-1.776-2.393
							c-0.688-1.052-1.434-2.352-2.114-3.865c-0.163-0.381-0.348-0.764-0.501-1.17c-0.157-0.403-0.348-0.815-0.414-1.233
							c-0.158-0.85-0.109-1.792-0.004-2.733c0.213-1.893,0.604-3.68,0.979-5.295c0.379-1.616,0.772-3.061,1.105-4.272
							c0.331-1.167,0.604-2.132,0.812-2.866c0.192-0.677,0.295-1.052,0.272-1.06c-0.022-0.007-0.169,0.355-0.401,1.02
							c-0.232,0.665-0.555,1.633-0.919,2.839c-0.365,1.206-0.783,2.647-1.181,4.266c-0.393,1.619-0.797,3.411-1.013,5.333
							c-0.105,0.958-0.16,1.913,0.017,2.839c0.085,0.479,0.278,0.878,0.44,1.286c0.158,0.409,0.349,0.794,0.517,1.177
							c0.703,1.521,1.48,2.824,2.201,3.868c0.722,1.045,1.386,1.835,1.88,2.347C336.661,203.4,336.973,203.646,336.989,203.628z"/>
					</g>
				</g>
			</g>
		</g>
		<g>
			<path style="opacity:0.3;" d="M148.445,75.285c1.291,6.954,0.892,22.872,1.735,25.497c0.948,2.952,4.922,25.875,5.053,30.346
				c0.13,4.471,3.827,7.746,5.011,4.176c1.184-3.57-1.428-21.327,0.167-23.873s0,0,1.523,3.197
				c1.523,3.197,5.618,24.643,6.525,28.087c0.908,3.444,5.18,6.965,7.018,2.655c1.839-4.31-4.516-28.419-3.162-28.011
				c1.354,0.408,8.194,19.799,10.259,28.492c2.065,8.693,4.406,10.371,7.476,6.756c3.071-3.614-3.815-26.082-3.815-26.082
				s-4.578-15.539-2.319-14.066c2.258,1.473,12.55,24.714,14.075,29.101c1.525,4.387,5.704,1.755,5.944-2.389
				c0.239-4.143-7.914-24.435-9.974-29.559c-2.059-5.124-4.17-16.893-4.17-16.893s4.358,6.105,5.758,9.589
				c1.4,3.485,4.317,6.597,8.051,7.002c3.733,0.404,2.908-2.835,1.057-5.662c-1.85-2.827-3.626-10.208-8.767-18.855
				c-3.931-6.611-14.692-16.034-19.82-19.997l-1.223-1.054C165.187,66.981,156.808,70.826,148.445,75.285z"/>
			<path style="opacity:0.3;" d="M435.42,260.392c-1.438-3.274-8.817-19.076-16.904-17.588c-2.799,0.515-4.166,1.223-4.438,1.375
				c0.266,0.235,0.562,0.502,0.888,0.801c1.34,1.241,3.127,3.042,4.861,5.235c1.731,2.196,3.098,4.325,4.063,5.874
				c0.479,0.777,0.859,1.411,1.11,1.855c0.253,0.444,0.382,0.695,0.36,0.709c-0.022,0.014-0.193-0.211-0.484-0.631
				c-0.332-0.49-0.736-1.087-1.21-1.789c-1.021-1.51-2.417-3.605-4.134-5.784c-1.72-2.176-3.462-3.991-4.75-5.277
				c-0.603-0.594-1.116-1.099-1.538-1.514c-0.363-0.359-0.555-0.567-0.538-0.586c0.011-0.013,0.12,0.063,0.298,0.204
				c-2.003-1.778-6.544-5.47-9.654-5.376c-3.825,0.115-5.484,1.327-5.685,1.486c0.032,0.038,0.061,0.073,0.094,0.112
				c1.868,2.254,4.437,5.378,7.177,8.91c2.74,3.533,5.097,6.826,6.73,9.259c0.816,1.217,1.462,2.21,1.891,2.908
				c0.432,0.696,0.66,1.087,0.638,1.102c-0.022,0.014-0.292-0.35-0.761-1.021c-0.505-0.721-1.176-1.678-1.988-2.838
				c-1.686-2.39-4.072-5.651-6.809-9.179c-2.736-3.526-5.271-6.676-7.086-8.973c-0.873-1.116-1.594-2.037-2.136-2.731
				c-0.495-0.647-0.76-1.013-0.742-1.033c-3.152-3.496-8.049-8.13-10.683-6.561c-2.818,1.679-2.73,3.82-0.097,7.672
				c1.97,2.883,13.552,18.567,18.148,25.949c1.656,2.659-0.606,1.494-0.606,1.494s-22.504-26.192-27.022-27.245
				c-3.688-0.859-6.998,2.831-3.59,7.232c3.408,4.401,20.956,29.411,20.956,29.411c3.321,6.359,6.007,14.62,7.653,21.001
				c0.104,0.262-0.08,0.549-0.363,0.559c-2.18,0.072-10.846-0.242-14.97-2.289c-4.647-2.306-19.537-10.194-23.215-1.783
				c-0.509,1.165,1.155,2.355,1.675,2.662c3.651,2.158,16.842,9.563,20.82,12.582c4.567,3.465,27.355,10.375,30.838,11.826
				c3.483,1.451,6.855,0.572,10.759,4.446c0.336,0.333,7.261,3.73,7.702,4.438c7.274-30.454,7.001-39.355,8.651-48.59
				C439.205,270.419,436.159,262.074,435.42,260.392z"/>
			<path style="fill:#455A64;" d="M397.552,239.664c1.815,2.296,4.35,5.446,7.086,8.973c2.736,3.528,5.122,6.789,6.809,9.179
				c0.812,1.159,1.483,2.117,1.988,2.838c0.469,0.671,0.739,1.035,0.761,1.021c0.022-0.014-0.207-0.406-0.638-1.102
				c-0.429-0.698-1.076-1.691-1.891-2.908c-1.633-2.432-3.99-5.726-6.73-9.259c-2.74-3.531-5.309-6.656-7.177-8.91
				c-0.033-0.039-0.061-0.073-0.094-0.112c-0.867-1.033-1.59-1.893-2.136-2.544c-0.532-0.622-0.837-0.958-0.857-0.942
				c0,0,0.001,0.001,0.001,0.001c-0.017,0.019,0.247,0.385,0.742,1.033C395.958,237.627,396.679,238.549,397.552,239.664z"/>
			<path style="fill:#455A64;" d="M413.244,243.657c0.421,0.415,0.935,0.92,1.538,1.514c1.288,1.286,3.03,3.101,4.75,5.277
				c1.717,2.179,3.114,4.275,4.134,5.784c0.475,0.702,0.878,1.299,1.21,1.789c0.291,0.419,0.462,0.645,0.484,0.631
				c0.022-0.014-0.107-0.265-0.36-0.709c-0.252-0.444-0.632-1.078-1.11-1.855c-0.965-1.549-2.332-3.677-4.063-5.874
				c-1.734-2.193-3.521-3.994-4.861-5.235c-0.326-0.299-0.622-0.566-0.888-0.801c-0.283-0.25-0.531-0.463-0.736-0.63
				c-0.136-0.113-0.244-0.2-0.338-0.274c-0.178-0.14-0.287-0.216-0.298-0.204C412.689,243.09,412.882,243.298,413.244,243.657z"/>
			<path style="opacity:0.3;" d="M134.042,314.562c1.148-1.859,4.418-17.038,4.418-17.038s12.935-26.375,13.792-28.838
				c0.857-2.463-3.573-1.995-3.573-1.995s3.134-4.683,2.628-6.114c-0.506-1.431-3.846-4.098-6.669-0.311
				c-2.823,3.787-9.53,12.248-9.53,12.248l3.869-13.348c-0.594-0.457-6.412-4.604-11.064,7.332
				c-4.652,11.936-7.504,17.973-9.168,19.151c-1.665,1.178-18.029,14.313-20.433,14.732c-2.405,0.419-6.367-0.457-6.367-0.457
				s7.155-8.305,10.114-11.041c2.959-2.736,8.234-16.464,3.911-18.469c-4.323-2.005-5.597,3.827-7.505,6.426
				c-1.908,2.6-21.123,21.771-26.049,25.831c-2.566,2.115-8.832,9.921-12.368,16.717c2.051,12.324,2.616,22.673,10.007,38.377
				c1.359-4.336,8.864-10.652,9.824-11.587c2.278-2.22,26.148-10.235,34.092-15.756
				C121.912,324.903,132.893,316.422,134.042,314.562z"/>
		</g>
		<g>
			<path style="fill:#455A64;" d="M139.975,145.001c0.025-0.129,2.411,0.47,4.829,2.227c2.432,1.738,3.756,3.812,3.641,3.876
				c-0.128,0.103-1.599-1.765-3.953-3.444C142.156,145.959,139.917,145.154,139.975,145.001z"/>
		</g>
		<g>
			<path style="fill:#455A64;" d="M128.922,151.344c0.025-0.129,2.411,0.47,4.829,2.227c2.432,1.738,3.756,3.812,3.642,3.876
				c-0.128,0.103-1.599-1.765-3.953-3.444C131.103,152.303,128.865,151.498,128.922,151.344z"/>
		</g>
	</g>
</g>
<g id="Lines">
	<g>
		<g>
			<path style="fill:#263238;" d="M223.213,76.761c-0.006-0.025,0.353-0.167,1.05-0.214c0.346-0.017,0.789-0.004,1.271,0.192
				c0.486,0.178,0.96,0.649,1.17,1.27c0.23,0.617,0.204,1.339,0.214,2.03c-0.003,0.695,0.181,1.413,0.855,1.701
				c0.652,0.323,1.529,0.259,2.431,0.608c0.455,0.169,0.892,0.573,1.049,1.084c0.159,0.505,0.12,1.002,0.1,1.46
				c-0.023,0.46-0.035,0.898,0.1,1.254c0.134,0.352,0.421,0.614,0.78,0.786c0.727,0.351,1.591,0.419,2.389,0.712
				c0.394,0.145,0.813,0.372,1.056,0.769c0.243,0.386,0.276,0.862,0.175,1.237c-0.198,0.752-0.505,1.295-0.39,1.864
				c0.166,1.139,1.019,1.819,1.598,2.055c0.608,0.26,1.003,0.172,1.003,0.23c0.002,0.018-0.09,0.041-0.273,0.067
				c-0.182,0.01-0.463,0.012-0.801-0.103c-0.651-0.202-1.645-0.872-1.899-2.195c-0.16-0.669,0.191-1.388,0.33-2.01
				c0.174-0.655-0.227-1.24-0.966-1.453c-0.715-0.258-1.583-0.304-2.451-0.705c-0.429-0.197-0.859-0.565-1.046-1.067
				c-0.186-0.499-0.156-1.006-0.137-1.467c0.023-0.464,0.045-0.904-0.072-1.27c-0.117-0.362-0.386-0.624-0.749-0.769
				c-0.73-0.308-1.633-0.253-2.444-0.648c-0.405-0.195-0.75-0.553-0.903-0.961c-0.156-0.406-0.175-0.808-0.177-1.174
				c0.011-0.734,0.05-1.372-0.129-1.917c-0.164-0.542-0.523-0.935-0.935-1.118c-0.407-0.195-0.819-0.243-1.149-0.257
				C223.596,76.736,223.22,76.807,223.213,76.761z"/>
		</g>
		<g>
			<path style="fill:#263238;" d="M261.694,72.961c0.02-0.018,0.314,0.218,0.692,0.786c0.183,0.285,0.386,0.668,0.454,1.173
				c0.085,0.499-0.085,1.131-0.51,1.611c-0.412,0.495-1.039,0.824-1.62,1.166c-0.591,0.335-1.108,0.836-1.026,1.545
				c0.042,0.708,0.521,1.421,0.662,2.357c0.077,0.469-0.054,1.038-0.413,1.421c-0.352,0.381-0.794,0.588-1.192,0.794
				c-0.401,0.203-0.778,0.405-1.014,0.691c-0.233,0.283-0.315,0.651-0.288,1.039c0.054,0.785,0.415,1.551,0.552,2.371
				c0.068,0.405,0.078,0.872-0.142,1.272c-0.211,0.394-0.601,0.654-0.968,0.75c-0.735,0.196-1.343,0.198-1.77,0.571
				c-0.885,0.69-1.049,1.743-0.97,2.347c0.073,0.641,0.339,0.934,0.288,0.963c-0.015,0.011-0.079-0.056-0.191-0.199
				c-0.097-0.15-0.235-0.387-0.302-0.73c-0.145-0.651-0.059-1.82,0.942-2.678c0.491-0.462,1.273-0.512,1.866-0.695
				c0.638-0.17,0.938-0.788,0.762-1.517c-0.128-0.731-0.509-1.49-0.59-2.421c-0.041-0.46,0.063-1.005,0.4-1.409
				c0.334-0.401,0.78-0.621,1.18-0.828c0.405-0.205,0.789-0.4,1.041-0.674c0.249-0.273,0.34-0.626,0.288-1.003
				c-0.092-0.766-0.576-1.507-0.633-2.388c-0.03-0.439,0.106-0.907,0.379-1.235c0.27-0.33,0.603-0.541,0.912-0.72
				c0.629-0.346,1.188-0.622,1.563-1.036c0.38-0.401,0.54-0.894,0.496-1.332c-0.031-0.439-0.189-0.812-0.337-1.098
				C261.9,73.276,261.658,72.99,261.694,72.961z"/>
		</g>
		<g>
			<path style="fill:#263238;" d="M243.326,61.145c0.006-0.017,0.138,0.016,0.385,0.095c0.244,0.087,0.605,0.225,1.027,0.494
				c0.41,0.269,0.93,0.668,1.228,1.35c0.317,0.671,0.296,1.576-0.017,2.418c-0.292,0.862-0.862,1.675-1.396,2.529
				c-0.516,0.834-1.023,1.895-0.525,2.853c0.439,0.974,1.623,1.552,2.29,2.779c0.317,0.629,0.319,1.423,0.048,2.068
				c-0.256,0.653-0.664,1.201-1.042,1.744c-0.378,0.541-0.747,1.073-0.918,1.642c-0.191,0.562-0.126,1.153,0.132,1.671
				c0.518,1.058,1.529,1.81,2.176,2.846c0.329,0.512,0.508,1.179,0.371,1.783c-0.125,0.598-0.475,1.097-0.855,1.466
				c-0.773,0.737-1.537,1.259-1.891,2.035c-0.774,1.507-0.516,3.034-0.057,3.831c0.479,0.832,1.048,1.014,1.01,1.066
				c-0.007,0.016-0.133-0.032-0.371-0.149c-0.214-0.146-0.546-0.378-0.816-0.81c-0.547-0.825-0.897-2.44-0.101-4.109
				c0.365-0.862,1.223-1.489,1.91-2.173c0.346-0.352,0.616-0.765,0.712-1.251c0.097-0.477-0.035-0.976-0.329-1.432
				c-0.577-0.928-1.611-1.666-2.23-2.879c-0.31-0.601-0.4-1.379-0.168-2.052c0.207-0.68,0.61-1.246,0.989-1.792
				c0.383-0.546,0.765-1.07,0.984-1.629c0.228-0.555,0.219-1.143-0.022-1.647c-0.515-1.024-1.717-1.635-2.266-2.8
				c-0.286-0.576-0.292-1.25-0.125-1.809c0.163-0.567,0.444-1.045,0.72-1.486c0.57-0.872,1.125-1.63,1.417-2.424
				c0.312-0.78,0.349-1.571,0.096-2.174c-0.236-0.614-0.695-1.013-1.071-1.294C243.838,61.351,243.301,61.198,243.326,61.145z"/>
		</g>
	</g>
</g>
<g id="Character_00000049182080141563360410000004610738589847423130_">
	<g>
		<g>
			<path style="fill:#FF725E;" d="M162.86,232.167c0.072-0.034,0.144-0.066,0.216-0.097c-0.123,0.052-0.115,0.051,0.024-0.005
				c0.131-0.046,0.259-0.095,0.391-0.139c0.281-0.092,0.568-0.17,0.857-0.232c0.116-0.025,0.232-0.048,0.349-0.068
				c0.078-0.014,0.156-0.026,0.234-0.037c-0.144,0.019-0.14,0.019,0.013,0.001c0.276-0.023,0.551-0.045,0.828-0.049
				c0.277-0.003,0.553,0.006,0.829,0.029c0.05,0.004,0.532,0.066,0.249,0.023c0.117,0.018,0.234,0.038,0.35,0.06
				c0.583,0.112,1.15,0.287,1.698,0.514c0.619,0.257,1.432-0.277,1.572-0.893c0.17-0.746-0.229-1.297-0.893-1.572
				c-2.573-1.067-5.5-0.891-8.008,0.259c-0.61,0.28-0.807,1.208-0.458,1.749C161.516,232.337,162.208,232.466,162.86,232.167
				L162.86,232.167z"/>
		</g>
		<g>
			<g>
				<g>
					<path style="fill:#263238;" d="M173.956,148.895c-17.91,41.976-30.9,96.093-6.518,133.948c1.915,2.972,4.154,6.048,7.801,7.427
						c4.861,1.838,10.67,0.131,15.67-1.831c14.702-5.77,28.16-13.732,42.597-20.004c14.437-6.272,30.527-10.898,46.21-9.176
						L173.956,148.895z"/>
				</g>
				<g>
					<path style="fill:#263238;" d="M368.203,246.582c-4.506-8.519-15.761-10.02-24.426-14.238
						c-13.157-6.405-21.169-20.174-25.833-34.043s-8.109-31.613-13.611-45.172c-5.501-13.559-16.365-36.925-30.468-40.829
						l-95.288,26.056c-13.087,22.732-19.945,45.106-10.613,69.569c5.841,15.311,23.098,46.55,24.77,64.067
						c2.133,22.35-15.61,33.669,1.658,48.017c10.503,8.727,78.799-14.263,92.38-12.838c13.581,1.426,29.202-8.777,27.964-22.376
						c5.575,6.204,14.843,8.802,22.83,6.399c7.987-2.402,14.285-9.681,15.513-17.931
						C364.136,269.598,373.65,256.879,368.203,246.582z"/>
				</g>
				<g>
					<g>
						<path style="fill:#263238;" d="M185.762,127.876c14.374-16.38,33.232-25.444,55.021-25.05
							c12.293,0.222,17.289,2.951,26.054,5.645c8.765,2.693,16.584,7.716,21.603,15.391c5.961,9.115,10.883,19.262,11.694,30.123
							c0.832,11.157-0.393,22.002-2.816,30.89c-2.943,10.794-10.988,27.173-17.866,35.995l-18.937,1.638
							c-15.686-0.008-31.589-0.044-46.729-4.147c-15.14-4.102-29.687-12.828-37.399-26.488
							C165.674,172.895,171.387,144.255,185.762,127.876z"/>
					</g>
					<g>
						<path style="fill:#FFBF9D;" d="M211.615,128.613l38.341-13.725l9.84,1.49c22.229,0.848,36.713,25.897,36.235,43.908
							c-0.53,20.009-1.967,44.418-5.656,59.052c-7.417,29.426-32.806,31.019-32.806,31.019s-0.029,15.817-0.184,25.779
							l-57.758-6.185l1.638-131.531C201.647,132.961,206.143,128.7,211.615,128.613z"/>
					</g>
					<g style="opacity:0.3;">
						<path style="fill:#455A64;" d="M227.789,161.891c5.146,1.7,10.243-3.082,15.661-3.199c3.755-0.081,7.146,2.076,10.747,3.145
							c4.071,1.209,8.409,1.016,12.65,0.812c6.034-0.29,12.068-0.579,18.102-0.869c3.458-0.166,7.609-0.782,9-3.953
							c0.888-2.024,0.254-4.358-0.405-6.468c-2.16-6.912-4.554-13.876-8.727-19.794c-4.173-5.918-10.406-10.744-17.589-11.66"/>
					</g>
					<g>
						<path style="fill:#263238;" d="M279.86,182.621c-0.11,2.029-1.918,3.608-4.038,3.532c-2.116-0.075-3.747-1.777-3.637-3.805
							c0.109-2.028,1.918-3.61,4.034-3.534C278.34,178.889,279.97,180.594,279.86,182.621z"/>
					</g>
					<g>
						<path style="fill:#263238;" d="M288.305,170.001c-0.52,0.457-3.227-1.949-7.349-2.309c-4.111-0.417-7.324,1.432-7.726,0.886
							c-0.2-0.243,0.366-1.1,1.767-1.941c1.382-0.838,3.676-1.567,6.241-1.328c2.565,0.245,4.639,1.383,5.793,2.461
							C288.21,168.857,288.558,169.799,288.305,170.001z"/>
					</g>
					<g>
						<path style="fill:#263238;" d="M260.658,201.455c0.002-0.236,2.602-0.448,6.8-0.607c1.061-0.015,2.076-0.134,2.318-0.836
							c0.316-0.738-0.022-1.911-0.423-3.18c-0.761-2.635-1.557-5.396-2.393-8.29c-3.297-11.792-5.584-21.451-5.108-21.579
							c0.477-0.129,3.536,9.325,6.834,21.118c0.787,2.906,1.542,5.675,2.258,8.325c0.292,1.232,0.854,2.649,0.176,4.178
							c-0.354,0.761-1.177,1.262-1.868,1.383c-0.693,0.145-1.285,0.103-1.809,0.088
							C263.246,201.905,260.653,201.691,260.658,201.455z"/>
					</g>
					<g>
						<path style="fill:#FF9A6C;" d="M257.575,250.276c0,0-20.199-0.506-39.023-14.249c0,0,8.894,21.648,39.023,21.533V250.276z"/>
					</g>
					<g>
						<path style="fill:#263238;" d="M273.497,148.996c1.08-0.58,3.588,1.47,7.019,2.889c3.385,1.529,6.604,1.956,6.911,3.136
							c0.119,0.561-0.691,1.251-2.297,1.568c-1.586,0.321-3.957,0.154-6.302-0.858c-2.341-1.016-4.08-2.625-4.922-3.997
							C273.046,150.351,273.004,149.293,273.497,148.996z"/>
					</g>
					<g>
						<path style="fill:#263238;" d="M236.247,180.831c-0.177,2.024,1.39,3.842,3.5,4.065c2.105,0.223,3.96-1.231,4.137-3.254
							c0.177-2.024-1.391-3.844-3.495-4.067C238.278,177.35,236.424,178.808,236.247,180.831z"/>
					</g>
					<g>
						<path style="fill:#263238;" d="M232.5,166.471c0.45,0.525,3.47-1.475,7.601-1.25c4.129,0.167,7.05,2.45,7.524,1.967
							c0.232-0.212-0.207-1.141-1.475-2.171c-1.25-1.024-3.418-2.07-5.991-2.194c-2.574-0.119-4.788,0.716-6.082,1.62
							C232.755,165.352,232.277,166.234,232.5,166.471z"/>
					</g>
					<g>
						<path style="fill:#263238;" d="M250.268,147.648c-1.054-0.658-3.818,1.212-7.472,2.384c-3.617,1.286-6.959,1.481-7.385,2.64
							c-0.174,0.552,0.593,1.301,2.212,1.734c1.598,0.435,4.047,0.44,6.547-0.404c2.498-0.847,4.432-2.332,5.424-3.644
							C250.605,149.036,250.746,147.981,250.268,147.648z"/>
					</g>
					<g>
						<path style="fill:#FFBF9D;" d="M204.06,188.809c0.194-2.223-1.905-7.695-4.071-8.235c-5.781-1.439-16.391-1.917-17.824,12.964
							c-1.959,20.341,18.868,18.113,18.96,17.533C201.197,210.618,203.39,196.487,204.06,188.809z"/>
					</g>
					<g>
						<path style="fill:#FF9A6C;" d="M196.229,203.1c-0.083-0.074-0.379,0.214-1.003,0.431c-0.61,0.21-1.633,0.299-2.655-0.201
							c-2.073-0.996-3.553-4.581-3.299-8.258c0.126-1.857,0.683-3.582,1.48-4.979c0.765-1.428,1.827-2.375,2.928-2.462
							c1.1-0.146,1.803,0.576,1.998,1.171c0.218,0.596,0.049,0.99,0.153,1.034c0.052,0.057,0.47-0.298,0.387-1.153
							c-0.045-0.413-0.237-0.916-0.678-1.353c-0.449-0.443-1.147-0.715-1.91-0.706c-1.58-0.042-3.13,1.265-4.006,2.798
							c-0.961,1.532-1.632,3.467-1.774,5.551c-0.265,4.112,1.464,8.149,4.323,9.283c1.394,0.51,2.631,0.194,3.293-0.227
							C196.146,203.589,196.296,203.143,196.229,203.1z"/>
					</g>
					<g>
						<path style="fill:#263238;" d="M199.156,180.604l4.994,5.552c23.107-20.635,68.672-72.724,66.122-69.615
							c0,0-15.104-6.832-31.833-4.574c-16.729,2.257-48.561,9.49-48.756,29.121C189.488,160.719,199.156,180.604,199.156,180.604z"
							/>
					</g>
				</g>
				<path style="fill:#FF9A6C;" d="M239.731,190.673c-2.317-0.028-5.255-0.599-7.055-1.781c0.85,2.343,3.73,4.097,6.744,4.109
					c3.014,0.011,5.914-1.721,6.791-4.057C244.369,190.081,242.048,190.701,239.731,190.673z"/>
				<path style="fill:#FF9A6C;" d="M277.592,190.673c-2.317-0.028-5.255-0.599-7.055-1.781c0.851,2.343,3.73,4.097,6.744,4.109
					c3.014,0.011,5.914-1.721,6.791-4.057C282.23,190.081,279.908,190.701,277.592,190.673z"/>
				<path style="fill:#263238;" d="M256.192,155.102c1.573-0.386,2.878-1.577,3.616-3.019c0.738-1.441,0.951-3.109,0.838-4.725
					c0.672,1.536,0.574,3.387-0.259,4.843C259.555,153.658,257.857,154.902,256.192,155.102"/>
				<path style="fill:#263238;" d="M269.914,155.102c-1.573-0.386-2.878-1.577-3.616-3.019c-0.738-1.441-0.951-3.109-0.838-4.725
					c-0.672,1.536-0.574,3.387,0.259,4.843C266.551,153.658,268.25,154.902,269.914,155.102"/>
				<path style="opacity:0.3;fill:#FF725E;" d="M249.494,199.669c-0.207,2.176-6.312,3.374-13.636,2.678
					c-7.324-0.697-13.093-3.026-12.886-5.201c0.207-2.176,6.312-3.374,13.636-2.677
					C243.932,195.165,249.701,197.494,249.494,199.669z"/>
				<path style="opacity:0.3;fill:#FF725E;" d="M290.587,202.282c-0.207,2.176-3.837,3.61-8.108,3.204
					c-4.271-0.406-7.565-2.5-7.358-4.675c0.207-2.176,3.837-3.61,8.108-3.204C287.5,198.013,290.794,200.106,290.587,202.282z"/>
			</g>
			<g>
				<path style="fill:#FFFFFF;" d="M265.128,210.492c-3.604-2.778-12.291-2.484-15.593,0.805c-0.974,0.97-1.794,2.198-2.079,3.612
					c-0.286,1.414,0.045,3.024,1.034,3.95c1.215,1.137,3.029,0.996,4.575,0.528c1.546-0.468,3.086-1.206,4.677-1.062
					c2.434,0.22,4.58,2.479,6.995,2.028c1.912-0.357,3.332-2.521,3.325-4.671C268.055,213.531,266.805,211.544,265.128,210.492z"/>
				<path style="fill:#263238;" d="M248.011,213.346c0,0-0.015,2.723,1.111,3.125c0,0-0.341,1.996,0.633,3.088
					c0,0-1.912-0.612-2.398-2.413C246.871,215.346,248.011,213.346,248.011,213.346z"/>
				<path style="fill:#263238;" d="M267.452,213.018c0,0,0.015,2.723-1.111,3.125c0,0-0.06,2.951-1.034,4.043
					c0,0,2.218-0.753,2.799-3.368C268.512,214.998,267.452,213.018,267.452,213.018z"/>
			</g>
		</g>
		<path style="fill:#FF725E;" d="M196.631,261.98c0.822-0.228-33.991,4.508-33.991,4.508l17.032,111.264l-8.089,75.366
			c36.419,17.595,107.972,26.74,147.481-0.075l7.062-164.583l-8.659-22.224l-42.017-6.061l-17.875,0.409
			C246.599,273.842,221.698,264.708,196.631,261.98z"/>
		<g>
			<path style="fill:#FFBF9D;" d="M222.896,297.192c0,0-25.399-31.46-26.265-35.213c-0.866-3.752-7.245-25.399-4.777-27.997
				c2.468-2.598,15.456-12.411,19.209-12.122c3.752,0.289,6.07,6.811,6.07,6.811s2.687,0.199,3.495,0.553
				c4.027,1.764,5.444,5.913,5.444,5.913s3.175-2.02,5.773-0.289c2.598,1.732,5.235,8.165,2.637,9.897
				c-2.413,1.609-4.08-0.661-4.08-0.661v2.886c0,0,7.504,15.297,13.854,24.533c6.35,9.236,7.793,16.741,7.504,21.936
				c-0.289,5.195-0.637,8.177-0.637,8.177l-29.669,1.06L222.896,297.192z"/>
			<g>
				<path style="fill:#FF9A6C;" d="M251.759,293.44c-0.006,0-0.009-0.081-0.01-0.24c0.001-0.177,0.003-0.409,0.005-0.707
					c-0.011-0.623-0.023-1.55-0.161-2.75c-0.246-2.395-0.982-5.907-2.838-10.027c-0.921-2.059-2.114-4.263-3.593-6.549
					c-1.509-2.26-3.193-4.712-4.804-7.428c-3.26-5.419-6.673-11.691-10.163-18.667l-0.023-0.047v-0.054
					c-0.001-0.886-0.003-1.881-0.004-2.886l-0.001-0.66l0.422,0.522c0.482,0.597,1.224,1.079,2.007,1.128
					c0.392,0.03,0.793-0.044,1.164-0.214c0.193-0.065,0.363-0.19,0.545-0.289c0.158-0.122,0.302-0.251,0.44-0.39
					c0.496-0.625,0.602-1.523,0.532-2.38c-0.075-0.867-0.301-1.742-0.636-2.579c-0.334-0.838-0.758-1.652-1.275-2.406
					c-0.519-0.747-1.134-1.459-1.91-1.9c-1.575-0.922-3.659-0.488-5.247,0.437l-0.243,0.142l-0.128-0.253
					c-0.814-1.611-2.012-3.145-3.382-4.506c-1.281-1.417-3.382-1.799-5.313-1.803l-0.192,0l-0.066-0.174
					c-0.476-1.247-1.092-2.487-1.855-3.622c-0.757-1.123-1.709-2.205-2.937-2.736c-1.238-0.619-2.611-0.031-3.908,0.507
					c-1.292,0.596-2.554,1.295-3.794,2.047c-3.914,2.413-7.599,5.104-10.997,7.961c-0.413,0.368-0.832,0.73-1.212,1.115
					c-0.373,0.335-0.474,0.816-0.558,1.347c-0.127,1.055-0.056,2.152,0.046,3.227c0.217,2.158,0.61,4.281,1.032,6.368
					c0.86,4.173,1.886,8.206,2.909,12.11c0.257,0.977,0.512,1.945,0.766,2.907c0.124,0.482,0.248,0.963,0.371,1.441
					c0.108,0.511,0.242,0.894,0.475,1.329c0.916,1.69,2.03,3.27,3.102,4.813c4.363,6.143,8.652,11.647,12.482,16.592
					c3.845,4.936,7.284,9.281,10.204,12.936l0.055,0.069l-0.034,0.079c-2.133,5.034-3.816,9.006-4.975,11.742
					c-0.576,1.338-1.022,2.373-1.332,3.094c-0.149,0.335-0.264,0.595-0.351,0.79c-0.081,0.177-0.125,0.265-0.131,0.262
					c-0.006-0.003,0.026-0.096,0.094-0.278c0.078-0.199,0.181-0.464,0.315-0.806c0.294-0.728,0.717-1.772,1.263-3.123
					c1.13-2.748,2.77-6.738,4.849-11.794l0.021,0.147c-2.949-3.634-6.415-7.959-10.285-12.879
					c-3.856-4.931-8.164-10.417-12.556-16.564c-1.082-1.55-2.196-3.116-3.149-4.862c-0.238-0.425-0.425-0.975-0.517-1.431
					c-0.124-0.476-0.248-0.954-0.372-1.434c-0.255-0.96-0.512-1.929-0.772-2.905c-1.032-3.906-2.067-7.944-2.936-12.133
					c-0.427-2.096-0.824-4.229-1.047-6.42c-0.103-1.096-0.181-2.208-0.046-3.349c0.039-0.285,0.089-0.574,0.199-0.862
					c0.08-0.27,0.304-0.616,0.503-0.783c0.4-0.406,0.823-0.772,1.243-1.146c3.43-2.887,7.115-5.581,11.066-8.017
					c1.251-0.758,2.529-1.466,3.853-2.077c0.676-0.282,1.355-0.555,2.085-0.721c0.361-0.076,0.77-0.105,1.145-0.085l0.566,0.103
					c0.184,0.047,0.356,0.129,0.534,0.194c0.691,0.3,1.304,0.742,1.809,1.263c0.522,0.508,0.965,1.077,1.36,1.667
					c0.793,1.184,1.415,2.436,1.912,3.741l-0.258-0.174c1.051-0.012,2.071,0.109,3.065,0.398c0.984,0.266,1.957,0.815,2.634,1.561
					c1.407,1.408,2.617,2.944,3.483,4.665l-0.371-0.111c0.889-0.519,1.837-0.854,2.84-0.984c0.994-0.118,2.055,0.023,2.93,0.541
					c0.883,0.508,1.528,1.274,2.072,2.055c0.541,0.791,0.977,1.636,1.324,2.51c0.346,0.873,0.583,1.786,0.662,2.72
					c0.069,0.918-0.023,1.936-0.647,2.725c-0.167,0.175-0.359,0.343-0.549,0.485c-0.205,0.113-0.395,0.248-0.619,0.326
					c-0.426,0.193-0.91,0.285-1.383,0.247c-0.961-0.076-1.778-0.613-2.35-1.324l0.421-0.138c-0.001,1.005-0.003,2-0.004,2.886
					l-0.023-0.101c3.462,6.971,6.849,13.253,10.073,18.676c1.599,2.726,3.247,5.156,4.756,7.446
					c1.472,2.309,2.656,4.535,3.564,6.615c1.832,4.163,2.532,7.71,2.734,10.122C251.953,292.15,251.759,293.44,251.759,293.44z"/>
			</g>
			<g>
				<path style="fill:#FF9A6C;" d="M221.541,256.868c-0.035,0.012-0.183-0.315-0.408-0.921c-0.225-0.606-0.528-1.49-0.866-2.595
					c-0.658-2.211-1.541-5.296-1.922-8.832c-0.068-0.433-0.027-0.905-0.028-1.351c0.077-0.438,0.129-0.887,0.287-1.289
					c0.146-0.408,0.3-0.803,0.519-1.154c0.184-0.372,0.429-0.69,0.658-1.008c0.947-1.248,2.045-2.132,2.99-2.805
					c0.953-0.669,1.78-1.12,2.361-1.407c0.582-0.285,0.923-0.404,0.938-0.37c0.039,0.075-1.252,0.701-3.076,2.08
					c-0.899,0.697-1.942,1.592-2.82,2.794c-0.866,1.192-1.565,2.745-1.299,4.457c0.373,3.466,1.191,6.556,1.755,8.781
					C221.212,255.476,221.612,256.844,221.541,256.868z"/>
			</g>
			<g>
				<path style="fill:#FF9A6C;" d="M216.951,228.933c0.012,0.035-0.439,0.22-1.256,0.546c-0.912,0.368-2.07,0.834-3.452,1.391
					c-1.443,0.613-3.171,1.341-4.979,2.33c-0.903,0.505-1.82,1.047-2.547,1.877c-0.743,0.822-1.534,1.715-1.645,2.834
					c-0.205,2.33,0.894,4.433,1.622,6.362c0.792,1.919,1.544,3.634,2.174,5.074c0.598,1.367,1.099,2.511,1.493,3.413
					c0.347,0.809,0.526,1.262,0.493,1.278c-0.033,0.016-0.276-0.408-0.68-1.19c-0.405-0.782-0.972-1.923-1.648-3.345
					c-0.675-1.423-1.464-3.124-2.285-5.041c-0.402-0.963-0.826-1.972-1.202-3.054c-0.177-0.532-0.369-1.13-0.429-1.723
					c-0.075-0.586-0.141-1.197-0.067-1.837c0.145-1.331,1.043-2.304,1.791-3.126c0.78-0.878,1.783-1.46,2.695-1.952
					c1.857-0.984,3.605-1.677,5.074-2.249c1.474-0.561,2.682-0.971,3.522-1.237C216.465,229.018,216.939,228.899,216.951,228.933z"
					/>
			</g>
			<g>
				<path style="fill:#FF9A6C;" d="M199.826,254.038c-0.07,0.021-0.553-1.288-1.276-3.42c-0.723-2.133-1.687-5.089-2.719-8.364
					c-0.503-1.646-1.03-3.177-1.413-4.664c-0.331-1.485-0.305-2.906,0.023-4.019c0.322-1.116,0.848-1.918,1.283-2.387
					c0.433-0.476,0.749-0.656,0.768-0.627c0.083,0.048-1.153,0.943-1.687,3.108c-0.265,1.064-0.25,2.401,0.09,3.815
					c0.384,1.389,0.935,2.957,1.438,4.597c1.035,3.281,1.943,6.261,2.576,8.426C199.541,252.667,199.896,254.016,199.826,254.038z"
					/>
			</g>
			<path style="fill:#263238;" d="M131.958,376.858c0,0-4.692-5.044,1.29-9.149c5.982-4.105,21.934-8.797,21.934-8.797
				l-6.451,17.008C148.731,375.919,136.438,379.185,131.958,376.858z"/>
			<g style="opacity:0.2;">
				<path d="M305.255,382.638c-4.467-10.895-14.095-19.027-24.712-24.118c-10.618-5.091-22.287-7.499-33.823-9.864
					c-6.58-1.349-13.632-2.659-19.835-0.082c-4.622,1.92-8.148,5.773-11.175,9.759c-10.669,14.046-17.073,31.289-18.159,48.894
					l-19.688,40.527c8.722,3.022,21.16,6.944,30.051,4.464s16.964-8.135,21.857-15.963c7.807-12.488,6.847-28.442,11.537-42.403
					c1.99,8.314,2.965,16.854,5.171,25.113c2.206,8.259,5.808,16.429,12.093,22.224c7.736,7.131,18.66,9.837,29.177,10.12
					c4.665,0.125,9.831-0.386,13.043-3.771c2.434-2.564,3.213-6.238,3.827-9.719c1.459-8.267,2.561-16.597,3.302-24.959
					C308.824,402.686,309.129,392.088,305.255,382.638z"/>
			</g>
			<path style="fill:#FFBF9D;" d="M154.787,283.484c0,0-25.442,8.015-17.649,46.114c7.793,38.099,19.064,120.928,49.081,121.217
				c30.017,0.289,39.575-10.981,47.166-48.427c7.525-37.126,18.259-104.004,18.259-104.004l-28.748-1.192l-28.327,67.863
				l-22.101-62.379L154.787,283.484z"/>
			<path style="fill:#FF725E;" d="M146.04,376.544c0,0-16.408,2.426-14.485-4.184c1.746-6.003,59.735-21.474,59.735-21.474
				l-25.374-84.65c0,0-36.845,2.602-37.733,42.832c-0.662,29.947-2.098,48.632-2.789,56.227c-0.371,4.079,1.007,8.207,4.019,10.983
				C132.633,379.248,137.892,381.083,146.04,376.544z"/>
			<g>
				<path style="fill:#FF9A6C;" d="M178.855,414.336c-0.018-0.002-0.012-0.195,0.017-0.563c0.04-0.427,0.09-0.958,0.152-1.606
					c0.069-0.697,0.153-1.552,0.33-2.532c0.175-0.98,0.307-2.109,0.595-3.33c0.496-2.458,1.237-5.355,2.233-8.517
					c1.008-3.158,2.257-6.582,3.674-10.129c2.87-7.083,5.596-13.428,7.315-18.122c0.863-2.344,1.543-4.25,1.97-5.58
					c0.211-0.615,0.384-1.119,0.522-1.524c0.125-0.347,0.199-0.526,0.217-0.521c0.018,0.005-0.022,0.195-0.114,0.552
					c-0.114,0.413-0.255,0.927-0.427,1.555c-0.368,1.352-0.994,3.28-1.814,5.646c-1.632,4.738-4.31,11.122-7.174,18.191
					c-1.415,3.541-2.672,6.946-3.701,10.082c-1.017,3.139-1.791,6.01-2.332,8.446c-0.311,1.21-0.468,2.329-0.67,3.3
					c-0.204,0.972-0.317,1.818-0.418,2.509c-0.101,0.642-0.184,1.168-0.251,1.591C178.916,414.148,178.874,414.338,178.855,414.336z
					"/>
			</g>
			<g>
				<path style="fill:#263238;" d="M172.785,356.117c-0.004-0.012,0.124-0.063,0.375-0.15c0.291-0.096,0.658-0.216,1.113-0.366
					c1.029-0.32,2.452-0.762,4.234-1.317c3.703-1.117,8.895-2.682,15.075-4.545l-0.146,0.324
					c-2.396-5.113-5.105-11.094-7.934-17.465c-4.547-10.325-8.661-19.669-11.665-26.491c-1.481-3.35-2.687-6.078-3.546-8.022
					c-0.399-0.914-0.716-1.641-0.954-2.186c-0.213-0.502-0.316-0.77-0.3-0.777c0.017-0.008,0.153,0.245,0.397,0.732
					c0.26,0.534,0.608,1.248,1.045,2.145c0.893,1.869,2.163,4.585,3.702,7.954c3.085,6.736,7.224,16.096,11.808,26.429
					c2.828,6.37,5.515,12.357,7.873,17.483l0.115,0.249l-0.261,0.075c-6.203,1.788-11.413,3.289-15.13,4.361
					c-1.798,0.501-3.233,0.901-4.271,1.191c-0.463,0.121-0.836,0.219-1.133,0.297C172.924,356.102,172.789,356.129,172.785,356.117z
					"/>
			</g>
		</g>
		<g>
			<g>
				<path style="fill:#263238;" d="M342.287,373.679c0,0,5.898-3.559,1.275-9.151c-4.623-5.592-18.67-14.488-18.67-14.488
					l1.527,18.126C326.418,368.166,337.34,374.685,342.287,373.679z"/>
				<g>
					<path style="fill:#FFBF9D;" d="M259.259,250.697c0.174,0.361,7.213,1.354,9.719-4.78l1.533,0.063c0,0,0.077,3.099,1.008,5.332
						l-4.279,9.406c0,0-24.391,20.389-24.264,29.703l0.771,10.683l30.643-2.859l-0.545-4.149c0,0,24.885-29.869,25.778-31.655
						c0.893-1.786,8.86-23.623,8.935-25.443c0.075-1.82-16.758-13.167-18.794-13.443c-2.036-0.276-10.78,1.06-13.997,3.744
						c-0.813,0.678-1.002,2.64-1.002,2.64s-5.404,4.253-5.74,7.422c0,0-3.676-0.231-4.722,0.302
						C263.257,238.196,257.751,247.564,259.259,250.697z"/>
					<g>
						<path style="fill:#FF9A6C;" d="M267.806,237.312c0-0.037,0.407-0.069,1.143-0.076c0.736-0.006,1.801,0.011,3.115,0.099
							c1.313,0.094,2.88,0.238,4.598,0.621c0.85,0.22,1.767,0.432,2.613,1.025c0.206,0.165,0.419,0.327,0.542,0.573l0.214,0.342
							l0.139,0.354c0.209,0.472,0.309,0.962,0.451,1.454c0.842,3.966,0.99,7.603,1.134,10.226c0.059,1.313,0.078,2.376,0.078,3.111
							c0,0.735-0.025,1.142-0.061,1.143c-0.037,0.001-0.083-0.403-0.146-1.134c-0.067-0.846-0.15-1.88-0.247-3.097
							c-0.238-2.603-0.452-6.246-1.276-10.126c-0.261-0.935-0.478-1.931-1.141-2.429c-0.701-0.505-1.601-0.746-2.414-0.965
							c-1.665-0.399-3.217-0.583-4.515-0.723c-1.301-0.135-2.359-0.209-3.09-0.267C268.211,237.386,267.806,237.348,267.806,237.312
							z"/>
					</g>
					<g>
						<path style="fill:#FF9A6C;" d="M274.765,229.94c-0.013-0.017,0.162-0.168,0.508-0.439c0.169-0.143,0.392-0.297,0.669-0.461
							c0.268-0.179,0.591-0.358,0.97-0.533c1.476-0.706,3.97-1.386,6.868-0.522l0.006,0.002l0.014,0.007
							c3.551,1.767,8.046,4.016,12.747,6.81c0.708,0.432,1.403,0.868,2.068,1.343c0.331,0.241,0.659,0.48,0.963,0.782
							c0.142,0.106,0.337,0.386,0.375,0.593c0.081,0.227,0.077,0.436,0.1,0.65c-0.044,1.651-0.561,3.08-1,4.45
							c-0.948,2.718-1.999,5.078-2.901,7.048c-0.909,1.967-1.692,3.536-2.25,4.611c-0.279,0.537-0.503,0.951-0.661,1.229
							c-0.158,0.277-0.25,0.419-0.266,0.41c-0.016-0.008,0.043-0.166,0.17-0.458c0.156-0.348,0.344-0.767,0.57-1.272
							c0.5-1.101,1.23-2.692,2.093-4.674c0.855-1.983,1.868-4.354,2.779-7.051c0.423-1.343,0.915-2.803,0.943-4.28
							c-0.032-0.374-0.061-0.666-0.329-0.888c-0.26-0.257-0.576-0.489-0.897-0.721c-0.645-0.458-1.334-0.89-2.035-1.318
							c-4.668-2.775-9.149-5.063-12.66-6.886l0.019,0.008c-1.318-0.437-2.657-0.496-3.781-0.384c-1.136,0.11-2.09,0.414-2.838,0.728
							C275.518,229.382,274.807,230.001,274.765,229.94z"/>
					</g>
					<path style="fill:#FF9A6C;" d="M279.383,234.863l-3.763,2.772c0,0,3.192,1.257,4.086,2.213
						c0.894,0.956,1.696,9.735,1.696,9.735s4.131-1.071,3.97-3.418c-0.161-2.347,0.088-6.29,1.85-7.266
						C287.223,238.899,279.445,237.529,279.383,234.863z"/>
				</g>
				<path style="fill:#FFBF9D;" d="M324.672,283.484c0,0,25.442,8.015,17.649,46.114c-7.793,38.099-19.064,120.928-49.081,121.217
					c-30.017,0.289-38.216-13.145-45.806-50.591c-7.525-37.126-4.797-101.458-4.797-101.458l31.209-4.67l12.796,66.015
					l20.349-57.435L324.672,283.484z"/>
				<path style="fill:#FF725E;" d="M334.072,371.974c0,0,8.906,1.81,9.673-3.474c0.967-6.663-51.028-19.994-56.865-21.385
					l21.608-82.138c0,0,37.376,0.83,38.265,41.06s3.176,60.137,3.176,60.137S350.368,381.053,334.072,371.974z"/>
				<g>
					<path style="fill:#FF9A6C;" d="M297.048,412.617c-0.018,0.001-0.048-0.193-0.087-0.563c-0.038-0.429-0.086-0.964-0.145-1.618
						c-0.108-1.406-0.285-3.439-0.531-5.946c-0.489-5.015-1.351-11.928-2.753-19.487c-1.411-7.56-3.093-14.32-4.441-19.176
						c-0.672-2.428-1.238-4.389-1.643-5.739c-0.181-0.631-0.328-1.147-0.447-1.562c-0.097-0.359-0.139-0.55-0.121-0.556
						c0.017-0.006,0.094,0.174,0.224,0.523c0.144,0.406,0.323,0.913,0.542,1.532c0.466,1.332,1.087,3.279,1.807,5.698
						c1.443,4.838,3.188,11.602,4.603,19.182c1.406,7.579,2.211,14.518,2.604,19.551c0.199,2.516,0.319,4.556,0.363,5.967
						c0.018,0.657,0.033,1.194,0.045,1.625C297.073,412.421,297.067,412.616,297.048,412.617z"/>
				</g>
				<g>
					<path style="fill:#263238;" d="M308.559,297.251c0.017,0.007-0.039,0.186-0.161,0.52c-0.148,0.388-0.332,0.868-0.555,1.452
						c-0.527,1.327-1.24,3.123-2.109,5.311c-1.79,4.48-4.263,10.669-6.92,17.532c-2.66,6.865-4.984,13.11-6.58,17.66
						c-0.786,2.279-1.436,4.119-1.852,5.402c-0.204,0.591-0.371,1.076-0.507,1.469c-0.122,0.334-0.194,0.507-0.211,0.502
						c-0.018-0.005,0.02-0.189,0.109-0.533c0.11-0.401,0.246-0.897,0.411-1.5c0.355-1.304,0.951-3.164,1.693-5.462
						c1.507-4.588,3.777-10.862,6.44-17.731c2.659-6.868,5.189-13.038,7.069-17.483c0.939-2.223,1.715-4.015,2.266-5.248
						c0.26-0.568,0.474-1.036,0.647-1.414C308.453,297.409,308.542,297.244,308.559,297.251z"/>
				</g>
			</g>
			<g>
				<path style="fill:#FF9A6C;" d="M242.725,354.738c0,0-0.015-0.171-0.021-0.507c-0.004-0.353-0.01-0.847-0.017-1.492
					c-0.005-1.333-0.012-3.27-0.021-5.776c0.002-5.054,0.005-12.385,0.008-21.567c0.02-9.201,0.043-20.254,0.07-32.726
					c0.004-0.781,0.008-1.568,0.013-2.359c0.031-0.817,0.161-1.637,0.434-2.407c0.502-1.558,1.288-3.011,2.159-4.417
					c1.759-2.811,3.915-5.432,6.206-8.016c4.625-5.137,9.856-10.104,15.519-14.951l-0.069,0.091
					c1.348-2.967,2.802-6.166,4.276-9.408l-0.003,0.21c-0.66-1.646-0.937-3.523-1.03-5.426l0.253,0.257
					c-0.479-0.02-1.006-0.041-1.533-0.063l0.256-0.164c-0.472,1.075-1.113,2.109-1.997,2.947c-0.878,0.841-1.977,1.461-3.153,1.827
					c-1.178,0.365-2.424,0.512-3.675,0.431c-0.316-0.029-0.622-0.058-0.956-0.152c-0.096-0.043-0.134-0.005-0.321-0.152
					c-0.085-0.071-0.121-0.132-0.12-0.162l-0.039-0.12l-0.149-0.484c-0.049-0.322-0.068-0.65-0.074-0.971
					c0.031-0.315,0.042-0.637,0.092-0.948c0.53-2.864,1.809-5.427,3.184-7.865c0.352-0.608,0.726-1.202,1.128-1.781
					c0.208-0.286,0.416-0.572,0.668-0.845c0.124-0.124,0.319-0.315,0.501-0.368c0.189-0.082,0.367-0.118,0.547-0.156
					c1.425-0.238,2.798-0.178,4.182-0.12l-0.279,0.236c0.102-0.876,0.491-1.637,0.914-2.337c0.431-0.7,0.927-1.348,1.462-1.952
					c1.065-1.215,2.229-2.304,3.466-3.31l-0.098,0.18c0.06-0.507,0.155-0.988,0.311-1.472c0.159-0.474,0.361-0.971,0.797-1.353
					c0.781-0.633,1.66-1.072,2.542-1.468c1.781-0.755,3.624-1.266,5.468-1.653c1.849-0.376,3.689-0.681,5.573-0.698
					c0.241,0.008,0.472,0.007,0.736,0.066c0.265,0.066,0.473,0.161,0.69,0.259c0.429,0.194,0.833,0.413,1.236,0.633
					c0.802,0.445,1.582,0.912,2.35,1.388c3.068,1.91,5.988,3.904,8.769,5.954c1.387,1.03,2.743,2.068,4.013,3.192
					c0.317,0.281,0.628,0.57,0.924,0.877c0.292,0.316,0.593,0.605,0.807,1.057c0.12,0.317,0.02,0.518-0.007,0.737
					c-0.034,0.227-0.101,0.413-0.153,0.619c-0.106,0.404-0.224,0.8-0.348,1.191c-1.996,6.251-4.145,12.051-6.141,17.461
					c-0.513,1.348-1.017,2.67-1.511,3.968c-0.26,0.645-0.494,1.288-0.807,1.915c-0.386,0.606-0.804,1.123-1.207,1.658
					c-1.639,2.104-3.25,4.079-4.782,5.964c-6.147,7.522-11.135,13.487-14.567,17.589c-1.715,2.035-3.043,3.611-3.956,4.695
					c-0.447,0.521-0.79,0.922-1.034,1.206c-0.235,0.27-0.364,0.399-0.364,0.399s0.104-0.15,0.327-0.43
					c0.235-0.292,0.567-0.702,0.998-1.236c0.897-1.097,2.202-2.692,3.887-4.752c3.393-4.155,8.309-10.173,14.444-17.686
					c1.522-1.891,3.125-3.874,4.75-5.977c0.397-0.529,0.82-1.065,1.165-1.606c0.291-0.588,0.528-1.241,0.783-1.882
					c0.489-1.297,0.987-2.62,1.495-3.967c1.975-5.409,4.11-11.224,6.083-17.453c0.122-0.39,0.238-0.781,0.34-1.175
					c0.049-0.194,0.119-0.4,0.143-0.583c0.034-0.186,0.088-0.399,0.034-0.479c-0.334-0.628-1.019-1.21-1.615-1.76
					c-1.251-1.102-2.604-2.135-3.986-3.157c-2.772-2.035-5.69-4.02-8.746-5.915c-0.765-0.472-1.54-0.935-2.331-1.372
					c-0.396-0.215-0.796-0.431-1.201-0.613c-0.199-0.091-0.414-0.182-0.593-0.226c-0.182-0.043-0.417-0.048-0.633-0.053
					c-1.797,0.018-3.643,0.321-5.46,0.694c-1.82,0.383-3.638,0.891-5.368,1.627c-0.853,0.383-1.7,0.811-2.416,1.394
					c-0.587,0.549-0.8,1.585-0.921,2.475l-0.015,0.113l-0.083,0.068c-1.202,0.978-2.358,2.062-3.393,3.245
					c-0.521,0.589-0.999,1.217-1.408,1.882c-0.401,0.662-0.755,1.378-0.838,2.118l-0.028,0.247l-0.252-0.011
					c-1.343-0.059-2.741-0.109-4.044,0.112c-0.336,0.062-0.589,0.152-0.768,0.37c-0.218,0.237-0.419,0.51-0.618,0.786
					c-0.388,0.561-0.756,1.144-1.102,1.742c-1.354,2.392-2.617,4.957-3.117,7.679c-0.047,0.293-0.055,0.587-0.086,0.879
					c0.006,0.287,0.023,0.577,0.063,0.852l0.121,0.39l0.029,0.098l0.007,0.025l0.004,0.012l0.002,0.006
					c-0.09,0.045,0.203-0.095-0.202,0.101l0.02-0.008c0.105-0.034,0.224-0.146,0.182-0.129c-0.069-0.045,0.052,0.01,0.099,0.018
					c0.252,0.072,0.554,0.106,0.842,0.131c1.172,0.077,2.365-0.063,3.473-0.407c1.109-0.345,2.132-0.924,2.95-1.707
					c0.823-0.78,1.423-1.746,1.871-2.761l0.076-0.172l0.18,0.007c0.527,0.022,1.053,0.044,1.533,0.064l0.242,0.01l0.012,0.248
					c0.087,1.835,0.366,3.698,0.986,5.237l0.043,0.108l-0.047,0.103c-1.476,3.241-2.932,6.439-4.283,9.404l-0.024,0.052
					l-0.046,0.039c-5.643,4.821-10.876,9.777-15.486,14.881c-2.283,2.567-4.432,5.171-6.172,7.939
					c-0.862,1.383-1.635,2.811-2.12,4.307c-0.267,0.742-0.386,1.513-0.418,2.273c-0.006,0.789-0.012,1.573-0.019,2.352
					c-0.071,12.473-0.134,23.527-0.186,32.728c-0.068,9.182-0.123,16.513-0.161,21.567c-0.029,2.506-0.051,4.443-0.066,5.776
					c-0.012,0.645-0.022,1.139-0.028,1.492C242.742,354.567,242.725,354.738,242.725,354.738z"/>
			</g>
		</g>
		<path style="fill:#FF725E;" d="M257.52,262.265"/>
	</g>
</g>
<g id="Hands">
	<g>
		<path style="fill:#FFFFFF;" d="M371.018,426.735l-8.994-17.543c0,0-13.968-10.587-24.906-20.895
			c-10.938-10.307-9.756-31.678-14.382-37.8c-4.626-6.122-0.158-7.342,4.904-5.032c5.062,2.311,6.626,10.746,9.158,15.963
			c2.532,5.217,4.296,6.582,4.296,6.582s-4.991-34.825-5.835-37.918c-0.844-3.093-9.378-18.118-9.162-28.147
			c0.216-10.029,4.59-11.592,9.279-2.533c0,0,2.2-0.256,4.721,2.072c2.521,2.328,6.877,8.962,6.877,8.962s-1.126-7.233,4.855-6.038
			c0,0,9.653,13.953,11.44,16.01c1.787,2.057,5.945,12.798,5.945,12.798s-1.662-11.611-1.567-14.37
			c0.095-2.759,3.851-2.465,4.202-2.561c0.351-0.096,5.03,20.494,6.004,24.752s4.138,25.168,4.585,27.496
			c0.447,2.329,5.189,18.66,5.42,20.199c0.232,1.539,12.86,9.469,12.86,9.469L371.018,426.735z"/>
		<g>
			<g>
				<path style="fill:#455A64;" d="M335.375,299.412c0.034-0.016,0.331,0.547,0.844,1.573c0.545,1.11,1.268,2.581,2.144,4.363
					c1.818,3.677,4.25,8.806,7.216,14.306c0.37,0.688,0.759,1.353,1.147,2.001c0.393,0.623,0.823,1.28,1.158,1.958
					c0.669,1.351,1.101,2.721,1.505,4.023c0.775,2.615,1.293,5.011,1.694,7.027c0.396,2.017,0.661,3.659,0.824,4.797
					c0.163,1.138,0.223,1.771,0.186,1.776c-0.036,0.006-0.165-0.616-0.391-1.741c-0.226-1.125-0.547-2.753-0.989-4.755
					c-0.446-1.999-1.001-4.378-1.795-6.961c-0.411-1.283-0.851-2.638-1.503-3.934c-0.322-0.644-0.719-1.248-1.142-1.912
					c-0.398-0.659-0.791-1.331-1.163-2.022c-2.981-5.527-5.357-10.678-7.09-14.401c-0.858-1.865-1.535-3.383-1.992-4.437
					C335.576,300.018,335.342,299.427,335.375,299.412z"/>
			</g>
			<g>
				<path style="fill:#455A64;" d="M346.973,310.446c0.025-0.027,0.443,0.306,1.167,0.944c0.724,0.638,1.755,1.58,2.995,2.779
					c1.239,1.201,2.693,2.655,4.215,4.363c0.758,0.857,1.542,1.769,2.268,2.796c0.72,1.047,1.289,2.227,1.802,3.441
					c2.028,4.885,3.325,9.478,4.29,12.788c0.469,1.659,0.821,3.01,1.051,3.946c0.229,0.937,0.334,1.461,0.298,1.47
					c-0.036,0.01-0.208-0.496-0.498-1.414c-0.316-1.015-0.723-2.323-1.213-3.895c-1.054-3.274-2.411-7.851-4.418-12.685
					c-0.509-1.205-1.06-2.349-1.739-3.35c-0.7-1.003-1.469-1.915-2.21-2.772c-1.49-1.711-2.91-3.189-4.112-4.42
					c-1.158-1.168-2.123-2.141-2.871-2.895C347.318,310.857,346.948,310.473,346.973,310.446z"/>
			</g>
			<g>
				<path style="fill:#455A64;" d="M375.043,346.207c-0.13,0.065-1.663-2.74-3.34-6.307c-0.837-1.784-1.548-3.424-1.999-4.64
					c-0.474-1.199-0.591-2.048-0.491-2.045c0.053,0.012,0.279,0.729,0.839,1.901c0.64,1.368,1.35,2.885,2.133,4.557
					C373.858,343.233,375.177,346.141,375.043,346.207z"/>
			</g>
		</g>
	</g>
	<g>
		<path style="fill:#FFFFFF;" d="M149.49,370.682c0.288,0.897-23.697,18.88-29.815,21.539c-6.118,2.659-35.214,7.321-40.369,9.412
			c-5.155,2.091,0,0,0,0s-27.295-24.408-26.561-24.036c0.735,0.371,11.162-2.125,13.901-4.765
			c2.739-2.64,28.645-33.719,33.488-37.308c4.844-3.589,20.513-11.268,23.365-11.031c2.093,0.174,3.802,3.193,3.068,2.822
			c0,0,15.671-4.259,16.927-3.165c1.256,1.094-0.482,6.611-7.087,8.75c0,0,19.407-3.913,20.482-0.915
			c1.075,2.998-1.981,6.519-6.468,8.346c-4.487,1.827-15.92,4.394-15.92,4.394s23.504-3.635,24.316-1.538
			c0.813,2.098,1.243,6.1-5.884,8.743c-7.127,2.643-25.758,7.152-28.98,9.873c-3.222,2.721-11.197,11.272-9.434,14.566
			c1.764,3.294,8.967-1.248,14.377-3.581C134.307,370.457,146.447,361.198,149.49,370.682z"/>
		<g>
			<path style="fill:#455A64;" d="M110.003,353.453c-0.015-0.034,0.311-0.217,0.912-0.521c0.602-0.303,1.478-0.728,2.568-1.238
				c2.18-1.019,5.209-2.402,8.645-3.723c3.438-1.32,6.651-2.254,9.012-2.76c1.18-0.255,2.141-0.429,2.811-0.513
				c0.669-0.09,1.041-0.122,1.047-0.086c0.014,0.085-1.448,0.364-3.77,0.965c-2.324,0.596-5.49,1.579-8.91,2.891
				c-3.418,1.314-6.464,2.639-8.682,3.57c-1.025,0.421-1.903,0.782-2.636,1.084C110.372,353.367,110.018,353.487,110.003,353.453z"
				/>
		</g>
		<g>
			<path style="fill:#455A64;" d="M105.406,345.573c-0.02-0.031,0.368-0.317,1.088-0.809c0.718-0.496,1.767-1.202,3.124-1.975
				c2.686-1.59,6.546-3.547,10.987-5.276c4.435-1.751,8.589-2.947,11.621-3.681c1.516-0.368,2.754-0.619,3.614-0.767
				c0.859-0.152,1.342-0.197,1.348-0.162c0.007,0.038-0.461,0.151-1.305,0.365c-0.844,0.209-2.065,0.516-3.563,0.929
				c-2.996,0.825-7.11,2.071-11.52,3.812c-4.416,1.72-8.276,3.61-10.996,5.108c-1.374,0.727-2.448,1.381-3.198,1.822
				C105.853,345.376,105.427,345.604,105.406,345.573z"/>
		</g>
		<g>
			<path style="fill:#455A64;" d="M104.214,338.016c-0.02-0.031,0.276-0.263,0.831-0.658c0.56-0.386,1.355-0.971,2.39-1.613
				c2.044-1.323,4.963-3.013,8.32-4.619c3.355-1.615,6.542-2.75,8.887-3.42c2.351-0.661,3.862-0.836,3.872-0.757
				c0.005,0.036-0.359,0.127-1.014,0.302c-0.654,0.177-1.596,0.447-2.749,0.815c-2.299,0.758-5.436,1.937-8.768,3.541
				c-3.334,1.595-6.264,3.223-8.351,4.46C105.543,337.3,104.26,338.086,104.214,338.016z"/>
		</g>
	</g>
</g>
</svg>
